<svg width="85" height="33" viewBox="0 0 85 33" fill="none" xmlns="http://www.w3.org/2000/svg">
<path d="M1.01136 15V3.36364H5.60227C6.48485 3.36364 7.23674 3.5322 7.85795 3.86932C8.47917 4.20265 8.95265 4.66667 9.27841 5.26136C9.60795 5.85227 9.77273 6.53409 9.77273 7.30682C9.77273 8.07955 9.60606 8.76136 9.27273 9.35227C8.93939 9.94318 8.45644 10.4034 7.82386 10.733C7.19508 11.0625 6.43371 11.2273 5.53977 11.2273H2.61364V9.25568H5.14205C5.61553 9.25568 6.00568 9.17424 6.3125 9.01136C6.62311 8.8447 6.85417 8.61553 7.00568 8.32386C7.16098 8.02841 7.23864 7.68939 7.23864 7.30682C7.23864 6.92045 7.16098 6.58333 7.00568 6.29545C6.85417 6.00379 6.62311 5.77841 6.3125 5.61932C6.00189 5.45644 5.60795 5.375 5.13068 5.375H3.47159V15H1.01136ZM13.831 3.36364V15H11.3707V3.36364H13.831ZM17.9574 3.36364L20.7699 12.2045H20.8778L23.696 3.36364H26.4233L22.4119 15H19.2415L15.2244 3.36364H17.9574ZM37.5568 3.36364V15H35.4318L30.3693 7.67614H30.2841V15H27.8239V3.36364H29.983L35.0057 10.6818H35.108V3.36364H37.5568ZM39.5895 15V3.36364H47.4304V5.39205H42.0497V8.16477H47.027V10.1932H42.0497V12.9716H47.4531V15H39.5895ZM59.1193 3.36364V15H56.9943L51.9318 7.67614H51.8466V15H49.3864V3.36364H51.5455L56.5682 10.6818H56.6705V3.36364H59.1193ZM61.152 15V3.36364H63.6122V8.49432H63.7656L67.9531 3.36364H70.902L66.5838 8.57386L70.9531 15H68.0099L64.8224 10.2159L63.6122 11.6932V15H61.152ZM82.2202 9.18182C82.2202 10.4508 81.9796 11.5303 81.4986 12.4205C81.0213 13.3106 80.3698 13.9905 79.544 14.4602C78.7221 14.9261 77.7978 15.1591 76.7713 15.1591C75.7372 15.1591 74.8092 14.9242 73.9872 14.4545C73.1652 13.9848 72.5156 13.3049 72.0384 12.4148C71.5611 11.5246 71.3224 10.447 71.3224 9.18182C71.3224 7.91288 71.5611 6.83333 72.0384 5.94318C72.5156 5.05303 73.1652 4.375 73.9872 3.90909C74.8092 3.43939 75.7372 3.20455 76.7713 3.20455C77.7978 3.20455 78.7221 3.43939 79.544 3.90909C80.3698 4.375 81.0213 5.05303 81.4986 5.94318C81.9796 6.83333 82.2202 7.91288 82.2202 9.18182ZM79.7259 9.18182C79.7259 8.35985 79.6027 7.66667 79.3565 7.10227C79.1141 6.53788 78.7713 6.10985 78.3281 5.81818C77.8849 5.52652 77.366 5.38068 76.7713 5.38068C76.1766 5.38068 75.6577 5.52652 75.2145 5.81818C74.7713 6.10985 74.4266 6.53788 74.1804 7.10227C73.938 7.66667 73.8168 8.35985 73.8168 9.18182C73.8168 10.0038 73.938 10.697 74.1804 11.2614C74.4266 11.8258 74.7713 12.2538 75.2145 12.5455C75.6577 12.8371 76.1766 12.983 76.7713 12.983C77.366 12.983 77.8849 12.8371 78.3281 12.5455C78.7713 12.2538 79.1141 11.8258 79.3565 11.2614C79.6027 10.697 79.7259 10.0038 79.7259 9.18182Z" fill="white"/>
<path d="M39.5852 20.3835V32.3438H38.1506V20.3835H39.5852ZM45.3239 30L43.2429 22.7273H44.9226L46.1264 27.7805H46.1868L47.5149 22.7273H48.9531L50.2777 27.7912H50.3416L51.5455 22.7273H53.2251L51.1442 30H49.6456L48.2607 25.245H48.2038L46.8224 30H45.3239ZM55.9196 30.1065C55.3585 30.1065 54.8755 29.9929 54.4707 29.7656C54.0682 29.536 53.7581 29.2116 53.5403 28.7926C53.3225 28.3712 53.2136 27.8729 53.2136 27.2976C53.2136 26.7365 53.3225 26.2441 53.5403 25.8203C53.7581 25.3965 54.0647 25.0663 54.46 24.8295C54.8578 24.5928 55.3242 24.4744 55.8592 24.4744C56.219 24.4744 56.554 24.5324 56.8642 24.6484C57.1767 24.7621 57.4489 24.9337 57.6809 25.1634C57.9153 25.393 58.0976 25.6818 58.2278 26.0298C58.358 26.3755 58.4231 26.7803 58.4231 27.2443V27.6598H53.8173V26.7223H56.9991C56.9991 26.5045 56.9518 26.3116 56.8571 26.1435C56.7624 25.9754 56.631 25.844 56.4629 25.7493C56.2972 25.6522 56.1042 25.6037 55.8841 25.6037C55.6544 25.6037 55.4508 25.657 55.2733 25.7635C55.0981 25.8677 54.9608 26.0085 54.8613 26.1861C54.7619 26.3613 54.711 26.5566 54.7086 26.772V27.6634C54.7086 27.9332 54.7583 28.1664 54.8578 28.3629C54.9596 28.5594 55.1028 28.7109 55.2875 28.8175C55.4721 28.924 55.6911 28.9773 55.9444 28.9773C56.1125 28.9773 56.2664 28.9536 56.4061 28.9062C56.5458 28.8589 56.6653 28.7879 56.7647 28.6932C56.8642 28.5985 56.9399 28.4825 56.992 28.3452L58.3912 28.4375C58.3201 28.7737 58.1745 29.0672 57.9544 29.3182C57.7366 29.5668 57.4548 29.7609 57.1092 29.9006C56.7659 30.0379 56.3694 30.1065 55.9196 30.1065ZM59.4387 30V22.7273H60.9515V25.4616H60.9977C61.064 25.3149 61.1599 25.1657 61.2853 25.0142C61.4132 24.8603 61.5789 24.7325 61.7825 24.6307C61.9885 24.5265 62.2441 24.4744 62.5495 24.4744C62.9473 24.4744 63.3142 24.5786 63.6504 24.7869C63.9866 24.9929 64.2553 25.3042 64.4565 25.7209C64.6577 26.1352 64.7583 26.6548 64.7583 27.2798C64.7583 27.8883 64.6601 28.402 64.4636 28.821C64.2695 29.2377 64.0043 29.5537 63.6681 29.7692C63.3343 29.9822 62.9603 30.0888 62.546 30.0888C62.2524 30.0888 62.0027 30.0402 61.7967 29.9432C61.5931 29.8461 61.4262 29.7242 61.296 29.5774C61.1658 29.4283 61.0663 29.2779 60.9977 29.1264H60.9302V30H59.4387ZM60.9196 27.2727C60.9196 27.5971 60.9645 27.88 61.0545 28.1214C61.1445 28.3629 61.2747 28.5511 61.4451 28.6861C61.6156 28.8187 61.8227 28.8849 62.0666 28.8849C62.3128 28.8849 62.5211 28.8175 62.6916 28.6825C62.862 28.5452 62.9911 28.3558 63.0787 28.1143C63.1686 27.8705 63.2136 27.59 63.2136 27.2727C63.2136 26.9579 63.1698 26.6809 63.0822 26.4418C62.9946 26.2027 62.8656 26.0156 62.6951 25.8807C62.5247 25.7457 62.3152 25.6783 62.0666 25.6783C61.8204 25.6783 61.612 25.7434 61.4416 25.8736C61.2735 26.0038 61.1445 26.1884 61.0545 26.4276C60.9645 26.6667 60.9196 26.9484 60.9196 27.2727ZM68.3743 30H65.7962V22.7273H68.3956C69.1271 22.7273 69.7569 22.8729 70.2848 23.1641C70.8127 23.4529 71.2188 23.8684 71.5028 24.4105C71.7893 24.9527 71.9325 25.6013 71.9325 26.3565C71.9325 27.1141 71.7893 27.7652 71.5028 28.3097C71.2188 28.8542 70.8104 29.272 70.2777 29.5632C69.7474 29.8544 69.1129 30 68.3743 30ZM67.3338 28.6825H68.3104C68.7649 28.6825 69.1473 28.602 69.4574 28.4411C69.7699 28.2777 70.0043 28.0256 70.1605 27.6847C70.3191 27.3414 70.3984 26.8987 70.3984 26.3565C70.3984 25.8191 70.3191 25.38 70.1605 25.0391C70.0043 24.6982 69.7711 24.4472 69.4609 24.2862C69.1508 24.1252 68.7685 24.0447 68.3139 24.0447H67.3338V28.6825ZM75.5289 30.1065C74.9679 30.1065 74.4849 29.9929 74.0801 29.7656C73.6776 29.536 73.3675 29.2116 73.1497 28.7926C72.9319 28.3712 72.823 27.8729 72.823 27.2976C72.823 26.7365 72.9319 26.2441 73.1497 25.8203C73.3675 25.3965 73.6741 25.0663 74.0694 24.8295C74.4672 24.5928 74.9335 24.4744 75.4686 24.4744C75.8284 24.4744 76.1634 24.5324 76.4735 24.6484C76.786 24.7621 77.0583 24.9337 77.2903 25.1634C77.5247 25.393 77.707 25.6818 77.8372 26.0298C77.9674 26.3755 78.0325 26.7803 78.0325 27.2443V27.6598H73.4267V26.7223H76.6085C76.6085 26.5045 76.5611 26.3116 76.4664 26.1435C76.3717 25.9754 76.2404 25.844 76.0723 25.7493C75.9065 25.6522 75.7136 25.6037 75.4934 25.6037C75.2638 25.6037 75.0602 25.657 74.8826 25.7635C74.7074 25.8677 74.5701 26.0085 74.4707 26.1861C74.3713 26.3613 74.3204 26.5566 74.318 26.772V27.6634C74.318 27.9332 74.3677 28.1664 74.4672 28.3629C74.569 28.5594 74.7122 28.7109 74.8968 28.8175C75.0815 28.924 75.3005 28.9773 75.5538 28.9773C75.7219 28.9773 75.8758 28.9536 76.0154 28.9062C76.1551 28.8589 76.2747 28.7879 76.3741 28.6932C76.4735 28.5985 76.5493 28.4825 76.6014 28.3452L78.0005 28.4375C77.9295 28.7737 77.7839 29.0672 77.5637 29.3182C77.3459 29.5668 77.0642 29.7609 76.7186 29.9006C76.3753 30.0379 75.9788 30.1065 75.5289 30.1065ZM83.9585 24.5455L82.0515 30H80.3469L78.44 24.5455H80.038L81.1708 28.4482H81.2276L82.3569 24.5455H83.9585Z" fill="white"/>
</svg>
